<?xml version="1.0" encoding="UTF-8"?>
<svg width="20px" height="18px" viewBox="0 0 20 18" version="1.1" xmlns="http://www.w3.org/2000/svg" xmlns:xlink="http://www.w3.org/1999/xlink">
    <!-- Generator: Sketch 61.2 (89653) - https://sketch.com -->
    <title>Group</title>
    <desc>Created with Sketch.</desc>
    <g id="Symbols" stroke="none" stroke-width="1" fill="none" fill-rule="evenodd">
        <g id="Web/Top-Navigation" transform="translate(-1011.000000, -65.000000)" fill-rule="nonzero">
            <g id="Group-14">
                <g id="Group-7" transform="translate(1011.000000, 62.000000)">
                    <g id="Group" transform="translate(0.000000, 3.000000)">
                        <path d="M7.6184082,17.6004028 C6.64886477,17.6004028 5.86029055,16.811676 5.86029055,15.8422852 C5.86029055,14.8727417 6.64886477,14.0841675 7.6184082,14.0841675 C8.58779906,14.0841675 9.37637328,14.8727417 9.37637328,15.8422852 C9.37637328,16.811676 8.58779906,17.6004028 7.6184082,17.6004028 Z" id="Path" fill="#697C86"></path>
                        <path d="M7.6184082,16.4282227 C7.29507445,16.4282227 7.03231812,16.1656189 7.03231812,15.8422852 C7.03231812,15.5189514 7.29507445,15.2561951 7.6184082,15.2561951 C7.94174195,15.2561951 8.2043457,15.5189514 8.2043457,15.8422852 C8.2043457,16.1656189 7.94174195,16.4282227 7.6184082,16.4282227 Z" id="Path" fill="#465A61"></path>
                        <path d="M15.9008789,17.6004028 C14.931488,17.6004028 14.1427612,16.811676 14.1427612,15.8422852 C14.1427612,14.8727417 14.931488,14.0841675 15.9008789,14.0841675 C16.8702698,14.0841675 17.6589966,14.8727417 17.6589966,15.8422852 C17.6589966,16.811676 16.8702698,17.6004028 15.9008789,17.6004028 Z" id="Path" fill="#596C76"></path>
                        <path d="M15.9008789,16.4282227 C15.5775452,16.4282227 15.3147888,16.1656189 15.3147888,15.8422852 C15.3147888,15.5189514 15.5775452,15.2561951 15.9008789,15.2561951 C16.2242127,15.2561951 16.4868164,15.5189514 16.4868164,15.8422852 C16.4868164,16.1656189 16.2242127,16.4282227 15.9008789,16.4282227 Z" id="Path" fill="#3B4A51"></path>
                        <path d="M17.7526855,13.4980774 C17.7526855,13.8262939 17.494812,14.0841675 17.166748,14.0841675 L5.95413207,14.0841675 C4.98123168,14.0841675 4.19601441,13.2987976 4.19601441,12.3260498 C4.19601441,11.4353943 4.85229492,10.6968689 5.71960449,10.5914307 C5.7899475,10.5679321 5.8720398,10.5679321 5.95413207,10.5679321 C6.09466555,10.5679321 6.23535156,10.6266785 6.32919312,10.7203674 L5.97747805,11.7401123 C5.96588133,11.7401123 5.96588133,11.7401123 5.95413207,11.7401123 C5.62591555,11.7401123 5.36804199,11.9978332 5.36804199,12.3260498 C5.36804199,12.6542664 5.62591555,12.9121399 5.95413207,12.9121399 L17.166748,12.9121399 C17.494812,12.9121399 17.7526855,13.1698609 17.7526855,13.4980774 L17.7526855,13.4980774 Z" id="Path" fill="#465A61"></path>
                        <path d="M3.88916016,2.36495973 C3.9263916,2.41180422 4.55749512,2.69683836 5.19287109,2.97592164 C5.19515992,2.92541504 5.20156859,2.87536621 5.19012453,2.82379148 L4.67453004,0.47958375 C4.61547852,0.210571289 4.37744141,0.01953125 4.10217285,0.01953125 L0.586090078,0.01953125 C0.262146016,0.01953125 0,0.281677266 0,0.605621328 C0,0.929412852 0.262146016,1.19155883 0.586090078,1.19155883 L3.63113402,1.19155883 L3.88916016,2.36495973 Z" id="Path" fill="#465A61"></path>
                        <path d="M17.7526855,13.4980774 C17.7526855,13.8262939 17.494812,14.0841675 17.166748,14.0841675 L11.6540527,14.0841675 L11.6540527,12.9121399 L17.166748,12.9121399 C17.494812,12.9121399 17.7526855,13.1698609 17.7526855,13.4980774 Z" id="Path" fill="#3B4A51"></path>
                        <path d="M19.8858643,2.59811402 C19.7686768,2.44567871 19.6044922,2.36358641 19.4169617,2.36358641 L3.89114379,2.36358641 L5.71960449,10.5914307 L5.97747805,11.7401123 L17.0729065,11.7401123 C17.33078,11.7401123 17.565155,11.5641785 17.635498,11.3180542 L19.9795532,3.11370852 C20.0265503,2.93792727 19.9913025,2.73864746 19.8858643,2.59811402 L19.8858643,2.59811402 Z" id="Path" fill="#FDBF00"></path>
                        <path d="M19.9795532,3.11370852 L17.635498,11.3180542 C17.565155,11.5641785 17.33078,11.7401123 17.0729065,11.7401123 L11.6540527,11.7401123 L11.6540527,2.36358641 L19.4169617,2.36358641 C19.6044922,2.36358641 19.7686768,2.44567871 19.8858643,2.59811402 C19.9913025,2.73864746 20.0265503,2.93792727 19.9795532,3.11370852 Z" id="Path" fill="#FF9F00"></path>
                    </g>
                </g>
            </g>
        </g>
    </g>
</svg>