<?xml version="1.0" encoding="UTF-8"?>
<svg width="16px" height="16px" viewBox="0 0 16 16" version="1.1" xmlns="http://www.w3.org/2000/svg" xmlns:xlink="http://www.w3.org/1999/xlink">
    <!-- Generator: Sketch 61.2 (89653) - https://sketch.com -->
    <title>icon/Flag/Laos</title>
    <desc>Created with Sketch.</desc>
    <g id="Symbols" stroke="none" stroke-width="1" fill="none" fill-rule="evenodd">
        <g id="Web/Top-Navigation" transform="translate(-1203.000000, -22.000000)">
            <g id="Group-14">
                <g id="Group-3" transform="translate(781.000000, 16.000000)">
                    <g id="按钮-Button-菜单按钮-中尺寸-方形" transform="translate(415.000000, 0.000000)">
                        <g id="Group-2">
                            <g id="icon/Flag/English" transform="translate(7.000000, 6.000000)">
                                <g id="Group">
                                    <path d="M12.5,16 L3.5,16 C1.567,16 0,14.433 0,12.5 L0,3.5 C0,1.567 1.567,0 3.5,0 L12.5,0 C14.433,0 16,1.567 16,3.5 L16,12.5 C16,14.433 14.433,16 12.5,16 Z" id="Path" fill="#41479B" fill-rule="nonzero"></path>
                                    <g fill="#F5F5F5" fill-rule="nonzero" id="Path">
                                        <path d="M16,12.4996562 L16,11.7313125 L13.5181563,10.1052812 L16,10.1052812 L16,9.26315625 L9.26315625,9.26315625 L9.26315625,16 L10.10525,16 L10.10525,10.889375 L15.446875,14.3890625 C15.6360625,14.0945312 15.782125,13.7696875 15.8765625,13.4235625"></path>
                                        <path d="M0.23534375,13.7638437 C0.32059375,13.9838438 0.42728125,14.1931562 0.55309375,14.3890625 L5.89471875,10.889375 L5.89471875,16 L6.7368125,16 L6.7368125,9.26315625 L0,9.26315625 L0,10.1052812 L2.48184375,10.1052812 L0,11.7313125 L0,12.5 C0,12.6345625 0.007875,12.7672812 0.02265625,12.8979063"></path>
                                        <path d="M0,3.61896875 L0,4.2686875 L2.48184375,5.89475 L0,5.89475 L0,6.73684375 L6.73684375,6.73684375 L6.73684375,0 L5.89475,0 L5.89475,5.110625 L0.55309375,1.6109375 C0.3455,1.93415625 0.18978125,2.2938125 0.0973125,2.678125"></path>
                                        <path d="M15.7600313,2.22403125 C15.6755938,2.0084375 15.5704063,1.80321875 15.446875,1.61090625 L10.10525,5.110625 L10.10525,0 L9.26315625,0 L9.26315625,6.73684375 L16,6.73684375 L16,5.89475 L13.5181563,5.89475 L16,4.2686875 L16,3.5 C16,3.360625 15.9915937,3.2231875 15.97575,3.0880625"></path>
                                    </g>
                                    <g fill="#FF4B55" fill-rule="nonzero" id="Path">
                                        <polygon points="9.26315625 0 6.73684375 0 6.73684375 6.73684375 0 6.73684375 0 9.26315625 6.73684375 9.26315625 6.73684375 16 9.26315625 16 9.26315625 9.26315625 16 9.26315625 16 6.73684375 9.26315625 6.73684375"></polygon>
                                        <path d="M4.32484375,10.10525 L0.02265625,12.8979063 C0.05684375,13.199875 0.12934375,13.4901875 0.235375,13.7638437 L5.87159375,10.10525 L4.32484375,10.10525 L4.32484375,10.10525 L4.32484375,10.10525 Z"></path>
                                        <path d="M10.7645312,10.10525 L15.8765937,13.4235938 C15.956875,13.1293125 16,12.8197187 16,12.5 L16,12.4996562 L12.3112813,10.10525 L10.7645312,10.10525 L10.7645312,10.10525 Z"></path>
                                        <path d="M5.052625,5.89475 L0.0973125,2.678125 C0.03384375,2.94175 0,3.21690625 0,3.5 L0,3.61896875 L3.505875,5.89475 L5.052625,5.89475 L5.052625,5.89475 Z"></path>
                                        <path d="M11.6519687,5.89475 L15.9757188,3.0880625 C15.940375,2.7866875 15.8669375,2.497 15.7600313,2.2240625 L10.10525,5.89475 L11.6519687,5.89475 Z"></path>
                                    </g>
                                </g>
                            </g>
                        </g>
                    </g>
                </g>
            </g>
        </g>
    </g>
</svg>