<?xml version="1.0" encoding="UTF-8"?>
<svg width="16px" height="16px" viewBox="0 0 16 16" version="1.1" xmlns="http://www.w3.org/2000/svg" xmlns:xlink="http://www.w3.org/1999/xlink">
    <!-- Generator: Sketch 61.2 (89653) - https://sketch.com -->
    <title>icon/Flag/Laos</title>
    <desc>Created with Sketch.</desc>
    <g id="Symbols" stroke="none" stroke-width="1" fill="none" fill-rule="evenodd">
        <g id="Web/Top-Navigation" transform="translate(-1374.000000, -30.000000)">
            <g id="icon/Flag/Laos" transform="translate(1374.000000, 30.000000)">
                <g id="laos">
                    <g id="Group" fill="#FF4B55" fill-rule="nonzero">
                        <path d="M12.5,3.125e-05 L3.5,3.125e-05 C1.609375,3.125e-05 0.069125,1.49915625 0.00253125,3.37353125 L15.9975,3.37353125 C15.930875,1.49915625 14.390625,3.125e-05 12.5,3.125e-05 Z" id="Path"></path>
                        <path d="M3.5,16 L12.5,16 C14.390625,16 15.930875,14.500875 15.9974688,12.6265 L0.00253125,12.6265 C0.069125,14.5009375 1.609375,16 3.5,16 Z" id="Path"></path>
                    </g>
                    <path d="M0.00253125,3.37353125 C0.00103125,3.41553125 0,3.45765625 0,3.50003125 L0,12.5000312 C0,12.5424062 0.00103125,12.5845312 0.00253125,12.6265312 L15.9975,12.6265312 C15.999,12.5845312 16.0000312,12.5424062 16.0000312,12.5000312 L16.0000312,3.50003125 C16.0000312,3.45765625 15.999,3.41553125 15.9975,3.37353125 L0.00253125,3.37353125 Z" id="Path" fill="#41479B" fill-rule="nonzero"></path>
                    <circle id="Oval" fill="#F5F5F5" fill-rule="nonzero" cx="8" cy="8.00003125" r="2.8815625"></circle>
                </g>
            </g>
        </g>
    </g>
</svg>