<?xml version="1.0" encoding="UTF-8"?>
<svg width="16px" height="16px" viewBox="0 0 16 16" version="1.1" xmlns="http://www.w3.org/2000/svg" xmlns:xlink="http://www.w3.org/1999/xlink">
    <!-- Generator: Sketch 61.2 (89653) - https://sketch.com -->
    <title>icon/ant/log out</title>
    <desc>Created with Sketch.</desc>
    <g id="icon/ant/log-out" stroke="none" stroke-width="1" fill="none" fill-rule="evenodd">
        <path d="M14.3075722,11.8316818 L13.0279362,11.8316818 C12.9405642,11.8316818 12.8586529,11.869907 12.8040454,11.9372563 C12.6766279,12.0919775 12.5401091,12.2412381 12.3963094,12.3832176 C11.8081742,12.9719412 11.1115249,13.4411131 10.3448873,13.7647876 C9.55063241,14.1002583 8.69695648,14.2723554 7.83476215,14.2708171 C6.96286226,14.2708171 6.11826613,14.0997136 5.324637,13.7647876 C4.55799936,13.4411131 3.86135011,12.9719412 3.27321493,12.3832176 C2.68402784,11.7964828 2.21422407,11.1010496 1.88982472,10.335436 C1.55307842,9.5418069 1.38379514,8.69903101 1.38379514,7.82713113 C1.38379514,6.95523124 1.55489867,6.11245536 1.88982472,5.31882624 C2.21382927,4.55250087 2.67981334,3.86262601 3.27321493,3.27104467 C3.86661653,2.67946332 4.55649138,2.21347925 5.324637,1.8894747 C6.11826613,1.55454865 6.96286226,1.38344512 7.83476215,1.38344512 C8.70666203,1.38344512 9.55125817,1.5527284 10.3448873,1.8894747 C11.1130329,2.21347925 11.8029078,2.67946332 12.3963094,3.27104467 C12.5401091,3.41484444 12.6748077,3.56410496 12.8040454,3.71700599 C12.8586529,3.78435525 12.9423844,3.8225805 13.0279362,3.8225805 L14.3075722,3.8225805 C14.4222479,3.8225805 14.4932377,3.69516298 14.4295289,3.59868972 C13.033397,1.42895138 10.5906211,-0.00722609651 7.81473939,2.73484622e-05 C3.45341971,0.0109764063 -0.0432810841,3.55136321 0.000404922698,7.90722214 C0.0440909295,12.1939116 3.53533098,15.6542074 7.83476215,15.6542074 C10.6033628,15.6542074 13.0352172,14.2198501 14.4295289,12.0555725 C14.4914174,11.9590993 14.4222479,11.8316818 14.3075722,11.8316818 Z M15.9257747,7.71245536 L13.3428395,5.67377504 C13.2463662,5.59732453 13.106207,5.66649404 13.106207,5.78845081 L13.106207,7.17184103 L7.39062108,7.17184103 C7.31053006,7.17184103 7.24500105,7.23737004 7.24500105,7.31746105 L7.24500105,8.33680121 C7.24500105,8.41689222 7.31053006,8.48242123 7.39062108,8.48242123 L13.106207,8.48242123 L13.106207,9.86581145 C13.106207,9.98776822 13.2481865,10.0569377 13.3428395,9.98048721 L15.9257747,7.9418069 C15.9610413,7.91420649 15.9816469,7.87191411 15.9816469,7.82713113 C15.9816469,7.78234814 15.9610413,7.74005577 15.9257747,7.71245536 L15.9257747,7.71245536 Z" id="Shape" fill="#FF4D4F"></path>
    </g>
</svg>