<?xml version="1.0" encoding="UTF-8"?>
<svg width="17px" height="15px" viewBox="0 0 17 15" version="1.1" xmlns="http://www.w3.org/2000/svg" xmlns:xlink="http://www.w3.org/1999/xlink">
    <!-- Generator: Sketch 61.2 (89653) - https://sketch.com -->
    <title>Group</title>
    <desc>Created with Sketch.</desc>
    <g id="Symbols" stroke="none" stroke-width="1" fill="none" fill-rule="evenodd">
        <g id="Web/Top-Navigation" transform="translate(-885.000000, -68.000000)" fill-rule="nonzero">
            <g id="Group-14">
                <g id="Group-6" transform="translate(885.000000, 62.000000)">
                    <g id="Group" transform="translate(0.000000, 6.000000)">
                        <g transform="translate(0.000000, 0.359375)" id="Path">
                            <path d="M0.0510546875,11.3983594 C0.018359375,11.3121875 0,11.2189062 0,11.1212891 L0,0.81703125 C0,0.691640625 0.02953125,0.573125 0.0820703125,0.468125 L16.2434375,0.468359375 C16.2959375,0.573359375 16.3259766,0.691640625 16.3259766,0.81703125 L16.3259766,11.1212891 C16.3259766,11.2189062 16.3076172,11.3121875 16.2749219,11.3983594 L0.0510546875,11.3983594 Z" fill="#FFD064"></path>
                            <path d="M15.0440625,0.468125 L15.0440625,9.83769531 C15.0440625,10.2700781 14.6935547,10.6205859 14.2611719,10.6205859 L0,10.6205859 L0,11.1196094 C0,11.2177734 0.0180859375,11.3117188 0.0510546875,11.3983203 L16.2749219,11.3983203 C16.3079297,11.3117578 16.3259766,11.2177734 16.3259766,11.1196094 L16.3259766,0.818710937 C16.3259766,0.692773437 16.29625,0.573789062 16.2434375,0.468398437 L15.0440625,0.468125 Z" fill="#FFC250"></path>
                            <path d="M8.16296875,2.71992187 L0.05109375,11.3983203 C0.163320313,11.6932813 0.44859375,11.9025391 0.782929688,11.9025391 L9.66621094,11.9025391 C9.73613281,11.9025391 9.80074219,11.9398438 9.83570313,12.0003906 L11.215625,14.3905078 C11.3662891,14.6514844 11.7429688,14.6514844 11.8936328,14.3905078 L13.2735547,12.0003906 C13.3085156,11.9398438 13.373125,11.9025391 13.4430469,11.9025391 L15.5430469,11.9025391 C15.8773828,11.9025391 16.1626563,11.6932813 16.2748828,11.3983203 L8.16296875,2.71992187 Z" fill="#FFE07D"></path>
                            <path d="M8.73492188,8.50082031 L16.2433984,0.468398437 C16.1148438,0.211914062 15.8494922,0.0358203125 15.5430469,0.0358203125 L0.782890625,0.0358203125 C0.476445313,0.0358203125 0.210585938,0.211679687 0.08203125,0.468164062 L7.59101563,8.50085938 C7.90046875,8.831875 8.42550781,8.831875 8.73492188,8.50082031 Z" fill="#FFC250"></path>
                            <path d="M15.5430859,0.03578125 L14.9410156,0.03578125 L7.29386719,8.18289062 L7.59105469,8.50082031 C7.90050781,8.831875 8.42550781,8.831875 8.73496094,8.50082031 L16.2434375,0.468398437 C16.1148437,0.211875 15.8494922,0.03578125 15.5430859,0.03578125 Z" fill="#EBB044"></path>
                            <path d="M15.0142187,10.0496094 C14.9217188,10.3789062 14.6199609,10.620625 14.2611328,10.620625 L12.7547656,10.620625 C12.6848437,10.620625 12.6202344,10.6579297 12.5852734,10.7184766 L11.8936328,11.9164062 C11.7429687,12.1773828 11.3662891,12.1773828 11.215625,11.9164062 L10.5239844,10.7184766 C10.4890234,10.6579297 10.4244141,10.620625 10.3544922,10.620625 L0.778007812,10.620625 L0.0510546875,11.3983594 C0.16328125,11.6933203 0.448554688,11.9025781 0.782890625,11.9025781 L9.66617187,11.9025781 C9.73609375,11.9025781 9.80070313,11.9398828 9.83566406,12.0004297 L11.2155859,14.3905469 C11.36625,14.6515234 11.7429297,14.6515234 11.8935938,14.3905469 L13.2735156,12.0004297 C13.3084766,11.9398828 13.3730859,11.9025781 13.4430078,11.9025781 L15.5430078,11.9025781 C15.8773438,11.9025781 16.1626172,11.6933203 16.2748437,11.3983594 L15.0142187,10.0496094 Z" fill="#FFD064"></path>
                        </g>
                    </g>
                </g>
            </g>
        </g>
    </g>
</svg>