<?xml version="1.0" encoding="UTF-8"?>
<svg width="16px" height="16px" viewBox="0 0 16 16" version="1.1" xmlns="http://www.w3.org/2000/svg" xmlns:xlink="http://www.w3.org/1999/xlink">
    <!-- Generator: Sketch 61.2 (89653) - https://sketch.com -->
    <title>icon/ant/bill gradient</title>
    <desc>Created with Sketch.</desc>
    <defs>
        <linearGradient x1="50%" y1="100%" x2="50%" y2="0%" id="linearGradient-1">
            <stop stop-color="#A93AFF" offset="0%"></stop>
            <stop stop-color="#FF81FF" offset="100%"></stop>
        </linearGradient>
        <linearGradient x1="50%" y1="100%" x2="50%" y2="0%" id="linearGradient-2">
            <stop stop-color="#FFBEF9" offset="0%"></stop>
            <stop stop-color="#FFF1FF" offset="100%"></stop>
        </linearGradient>
    </defs>
    <g id="icon/ant/bill-gradient" stroke="none" stroke-width="1" fill="none" fill-rule="evenodd">
        <g id="bill" transform="translate(1.000000, 0.000000)" fill-rule="nonzero">
            <path d="M11.71875,0 L1.875,0 C0.84378125,0 0,0.84371875 0,1.875 L0,15.53125 C0,15.7937188 0.20621875,16 0.46875,16 L9.84375,16 C10.1062813,16 10.3125,15.7937188 10.3125,15.53125 L10.3125,4.6875 L12.1875,2.34375 L11.71875,0 Z" id="Path" fill="url(#linearGradient-1)"></path>
            <path d="M2.34375,9.40625 C2.084875,9.40625 1.875,9.616125 1.875,9.875 C1.875,10.133875 2.084875,10.34375 2.34375,10.34375 C2.602625,10.34375 2.8125,10.133875 2.8125,9.875 C2.8125,9.616125 2.602625,9.40625 2.34375,9.40625 Z M2.34375,11.28125 C2.084875,11.28125 1.875,11.491125 1.875,11.75 C1.875,12.008875 2.084875,12.21875 2.34375,12.21875 C2.602625,12.21875 2.8125,12.008875 2.8125,11.75 C2.8125,11.491125 2.602625,11.28125 2.34375,11.28125 Z M2.34375,13.15625 C2.084875,13.15625 1.875,13.366125 1.875,13.625 C1.875,13.883875 2.084875,14.09375 2.34375,14.09375 C2.602625,14.09375 2.8125,13.883875 2.8125,13.625 C2.8125,13.366125 2.602625,13.15625 2.34375,13.15625 Z M7.96875,9.40625 L4.21875,9.40625 C3.95965625,9.40625 3.75,9.61590625 3.75,9.875 C3.75,10.1340937 3.95965625,10.34375 4.21875,10.34375 L7.96875,10.34375 C8.22784375,10.34375 8.4375,10.1340937 8.4375,9.875 C8.4375,9.61590625 8.22784375,9.40625 7.96875,9.40625 Z M7.96875,11.28125 L4.21875,11.28125 C3.95965625,11.28125 3.75,11.4909063 3.75,11.75 C3.75,12.0090937 3.95965625,12.21875 4.21875,12.21875 L7.96875,12.21875 C8.22784375,12.21875 8.4375,12.0090937 8.4375,11.75 C8.4375,11.4909063 8.22784375,11.28125 7.96875,11.28125 Z M7.96875,13.15625 L4.21875,13.15625 C3.95965625,13.15625 3.75,13.3659063 3.75,13.625 C3.75,13.8840937 3.95965625,14.09375 4.21875,14.09375 L7.96875,14.09375 C8.22784375,14.09375 8.4375,13.8840937 8.4375,13.625 C8.4375,13.3659063 8.22784375,13.15625 7.96875,13.15625 Z M12.4875625,0.234375 C12.2719687,0.08434375 12.0000312,0 11.71875,0 C10.9405625,0 10.3125,0.628125 10.3125,1.40625 L10.3125,4.6875 L12.65625,4.6875 C12.915125,4.6875 13.125,4.477625 13.125,4.21875 L13.125,1.40625 C13.125,0.90934375 12.8718438,0.478125 12.4875625,0.234375 Z M7.96875,1.875 L6.5625,1.875 L6.5625,4.6875 C6.5625,4.846875 6.47809375,4.996875 6.3375,5.090625 C6.22209375,5.16271875 6.06171875,5.18403125 5.88753125,5.10940625 L5.15625,4.74375 L4.42496875,5.109375 C4.284375,5.175 4.10625,5.175 3.975,5.09059375 C3.83440625,4.99684375 3.75,4.84684375 3.75,4.68746875 L3.75,1.875 L2.34375,1.875 C2.08121875,1.875 1.875,2.08121875 1.875,2.34375 L1.875,7.96875 C1.875,8.23128125 2.08121875,8.4375 2.34375,8.4375 L7.96875,8.4375 C8.23128125,8.4375 8.4375,8.23128125 8.4375,7.96875 L8.4375,2.34375 C8.4375,2.08121875 8.23128125,1.875 7.96875,1.875 Z" id="Shape" fill="url(#linearGradient-2)"></path>
        </g>
    </g>
</svg>