<?xml version="1.0" encoding="UTF-8"?>
<svg width="16px" height="16px" viewBox="0 0 16 16" version="1.1" xmlns="http://www.w3.org/2000/svg" xmlns:xlink="http://www.w3.org/1999/xlink">
    <!-- Generator: Sketch 61.2 (89653) - https://sketch.com -->
    <title>icon/ant/user fill copy 5</title>
    <desc>Created with Sketch.</desc>
    <defs>
        <linearGradient x1="50%" y1="0%" x2="50%" y2="100%" id="linearGradient-1">
            <stop stop-color="#FDBF00" offset="0%"></stop>
            <stop stop-color="#FD9500" offset="100%"></stop>
        </linearGradient>
    </defs>
    <g id="icon/ant/user-fill-copy-5" stroke="none" stroke-width="1" fill="none" fill-rule="evenodd">
        <path d="M10.8295898,7.72875975 C11.2454834,7.72875975 11.6342773,7.79907225 11.9851074,7.93786622 C12.3371582,8.07739256 12.6416016,8.26867675 12.8902588,8.50659181 C13.1280517,8.73400878 13.3399658,9.01037597 13.5203857,9.32775878 C13.6942139,9.63354494 13.8348389,9.95263672 13.9382324,10.2757568 C14.0383301,10.5883789 14.1219482,10.9304199 14.1868897,11.2922363 C14.2512207,11.6513672 14.2949219,11.9914551 14.3165283,12.3032227 C14.3378906,12.6079102 14.3488769,12.9259033 14.3488769,13.248291 C14.3488769,14.0838623 14.083374,14.7601318 13.5596924,15.2584228 C13.0424805,15.7506103 12.3585205,16.0001221 11.5264892,16.0001221 L11.5264892,16.0001221 L3.82238769,16.0001221 C2.99035644,16.0001221 2.30615234,15.7504883 1.7890625,15.2584228 C1.26550294,14.7597656 1,14.0836182 1,13.2484131 C1,12.9274902 1.01074219,12.6097412 1.03198244,12.3035889 C1.05358887,11.9910889 1.09729003,11.6508789 1.16162109,11.2922363 C1.2265625,10.9304199 1.31018066,10.588501 1.41015625,10.2758789 C1.51367187,9.95251466 1.65429687,9.63354494 1.82800294,9.32775878 C2.00817872,9.01049806 2.22021484,8.73425294 2.45788575,8.50671387 C2.70678712,8.26855469 3.01135253,8.0772705 3.36315919,7.93798828 C3.71386719,7.79907225 4.10253906,7.72863769 4.51855469,7.72863769 C4.68188475,7.72863769 4.83996581,7.79565431 5.14465331,7.99426269 C5.33520506,8.11840819 5.55493162,8.26000975 5.7977295,8.41516112 C6.00708006,8.54870606 6.29101562,8.67382812 6.64135744,8.78698731 C6.98388672,8.89770506 7.33117675,8.95385744 7.67407225,8.95385744 C8.01696778,8.95385744 8.36437987,8.89770506 8.70654297,8.78698731 C9.05725097,8.67370606 9.34118653,8.548584 9.55078125,8.41503906 C9.79589844,8.25842284 10.0155029,8.11682128 10.2032471,7.99438475 C10.5083008,7.79577637 10.6662597,7.72875975 10.8295898,7.72875975 Z M7.57348631,-1.33226763e-14 C8.63220216,-1.33226763e-14 9.54895019,0.37976075 10.2982178,1.12878419 C11.0474853,1.87817381 11.4272461,2.79492187 11.4272461,3.85351562 C11.4272461,4.91247559 11.0474853,5.82910156 10.2983398,6.57824706 C9.54919434,7.32751466 8.63232422,7.70727537 7.57348631,7.70727537 C6.51489256,7.70727537 5.59814453,7.32739256 4.84887694,6.57836912 C4.09960937,5.82922362 3.71972656,4.91247559 3.71972656,3.85351562 C3.71972656,2.79479981 4.09960937,1.87805175 4.84875487,1.12890625 C5.59790037,0.37976075 6.51452637,-1.33226763e-14 7.57348631,-1.33226763e-14 Z" id="Combined-Shape" fill="url(#linearGradient-1)"></path>
    </g>
</svg>