<?xml version="1.0" encoding="UTF-8"?>
<svg width="16px" height="16px" viewBox="0 0 16 16" version="1.1" xmlns="http://www.w3.org/2000/svg" xmlns:xlink="http://www.w3.org/1999/xlink">
    <!-- Generator: Sketch 61.2 (89653) - https://sketch.com -->
    <title>icon/ant/rating gradient </title>
    <desc>Created with Sketch.</desc>
    <defs>
        <linearGradient x1="14.6447266%" y1="85.3552734%" x2="85.3552734%" y2="14.6447266%" id="linearGradient-1">
            <stop stop-color="#FF726D" offset="0%"></stop>
            <stop stop-color="#FFDE00" offset="100%"></stop>
        </linearGradient>
        <radialGradient cx="50.1980469%" cy="50%" fx="50.1980469%" fy="50%" r="50%" id="radialGradient-2">
            <stop stop-color="#FF726D" offset="10.6%"></stop>
            <stop stop-color="#FFAC33" stop-opacity="0.034" offset="92.51%"></stop>
            <stop stop-color="#FFAE31" stop-opacity="0" offset="95.37%"></stop>
        </radialGradient>
        <linearGradient x1="-11.5444333%" y1="115.997747%" x2="90.9373932%" y2="18.4430477%" id="linearGradient-3">
            <stop stop-color="#FCA200" offset="0%"></stop>
            <stop stop-color="#FDB739" offset="20.32%"></stop>
            <stop stop-color="#FEDDA2" offset="59.81%"></stop>
            <stop stop-color="#FFF6E5" offset="87.21%"></stop>
            <stop stop-color="#FFFFFF" offset="100%"></stop>
        </linearGradient>
        <linearGradient x1="-8.11808677%" y1="98.6735651%" x2="109.461032%" y2="4.38113684%" id="linearGradient-4">
            <stop stop-color="#FCA200" offset="0%"></stop>
            <stop stop-color="#FCA810" offset="9.59%"></stop>
            <stop stop-color="#FDB738" offset="28.22%"></stop>
            <stop stop-color="#FDCF7A" offset="54.03%"></stop>
            <stop stop-color="#FEEFD4" offset="85.73%"></stop>
            <stop stop-color="#FFFFFF" offset="100%"></stop>
        </linearGradient>
        <linearGradient x1="-49.1786105%" y1="139.965504%" x2="118.699786%" y2="-21.0545763%" id="linearGradient-5">
            <stop stop-color="#FF726D" stop-opacity="0.7" offset="12.29%"></stop>
            <stop stop-color="#FE8054" stop-opacity="0.597" offset="25.25%"></stop>
            <stop stop-color="#FD9530" stop-opacity="0.423" offset="47.06%"></stop>
            <stop stop-color="#FDA415" stop-opacity="0.26" offset="67.46%"></stop>
            <stop stop-color="#FCAD06" stop-opacity="0.114" offset="85.71%"></stop>
            <stop stop-color="#FCB000" stop-opacity="0" offset="100%"></stop>
        </linearGradient>
        <linearGradient x1="-43.8669871%" y1="136.590095%" x2="109.975788%" y2="-28.4006386%" id="linearGradient-6">
            <stop stop-color="#FF726D" stop-opacity="0.7" offset="0%"></stop>
            <stop stop-color="#FD9E20" stop-opacity="0.23" offset="67.14%"></stop>
            <stop stop-color="#FCB000" stop-opacity="0" offset="100%"></stop>
        </linearGradient>
        <linearGradient x1="-106.994873%" y1="170.222455%" x2="75.9534942%" y2="-6.80264288%" id="linearGradient-7">
            <stop stop-color="#FCB000" offset="0%"></stop>
            <stop stop-color="#FCB510" offset="3.63%"></stop>
            <stop stop-color="#FDC84E" offset="19.25%"></stop>
            <stop stop-color="#FED984" offset="34.71%"></stop>
            <stop stop-color="#FEE7B0" offset="49.65%"></stop>
            <stop stop-color="#FEF1D2" offset="63.94%"></stop>
            <stop stop-color="#FFF9EB" offset="77.43%"></stop>
            <stop stop-color="#FFFDFA" offset="89.79%"></stop>
            <stop stop-color="#FFFFFF" offset="100%"></stop>
        </linearGradient>
    </defs>
    <g id="icon/ant/rating-gradient-" stroke="none" stroke-width="1" fill="none" fill-rule="evenodd">
        <g id="favorite" fill-rule="nonzero">
            <circle id="Oval" fill="url(#linearGradient-1)" cx="8" cy="8" r="8"></circle>
            <circle id="Oval" fill="url(#radialGradient-2)" cx="8" cy="8" r="8"></circle>
            <path d="M7.7791875,11.88 C6.68684375,12.4605938 5.60534375,13.0314375 4.54096875,13.5816563 C4.2026875,13.75675 3.79115625,13.4475313 3.84465625,13.06125 C4.01478125,11.847125 4.20240625,10.6288125 4.40215625,9.40715625 C4.42740625,9.25265625 4.37465625,9.09434375 4.26078125,8.98409375 C3.36034375,8.11215625 2.4605625,7.24796875 1.57284375,6.40215625 C1.2898125,6.13309375 1.45375,5.65990625 1.8479375,5.59825 C3.08528125,5.4064375 4.32146875,5.21471875 5.55584375,5.027375 C5.71196875,5.00365625 5.84740625,4.904875 5.91803125,4.76296875 C6.47671875,3.64096875 7.03415625,2.516 7.57878125,1.3931875 C7.75240625,1.03528125 8.24759375,1.03528125 8.42121875,1.3931875 C8.96584375,2.51596875 9.52328125,3.64096875 10.0819688,4.76296875 C10.152625,4.904875 10.2880625,5.0036875 10.4441563,5.027375 C11.6785313,5.21475 12.9147188,5.4064375 14.1520625,5.59825 C14.5462188,5.65990625 14.7101563,6.133125 14.4271563,6.40215625 C13.5394375,7.24796875 12.6396875,8.11215625 11.7392188,8.98409375 C11.6253438,9.094375 11.5725625,9.25265625 11.5978438,9.40715625 C11.7975938,10.6288125 11.9852188,11.847125 12.1553438,13.06125 C12.2088437,13.4475313 11.7973125,13.75675 11.4590313,13.5816563 C10.394625,13.0314375 9.31315625,12.4605938 8.2208125,11.88 C8.0826875,11.8065625 7.91734375,11.8065625 7.7791875,11.88 L7.7791875,11.88 Z" id="Path" fill="url(#linearGradient-3)"></path>
            <path d="M12.1553438,13.06125 C11.9851562,11.8489375 11.7975313,10.6324375 11.5977813,9.412625 C8.7761875,9.72840625 6.11428125,7.80246875 5.5558125,5.027375 C4.3214375,5.21475 3.08525,5.4064375 1.84790625,5.59825 C1.45371875,5.65990625 1.2898125,6.133125 1.5728125,6.40215625 C2.46053125,7.24796875 3.36028125,8.11215625 4.26075,8.98409375 C4.374625,9.09434375 4.42740625,9.25265625 4.40215625,9.40715625 C4.20240625,10.6288125 4.01478125,11.847125 3.84465625,13.06125 C3.79115625,13.4475312 4.2026875,13.75675 4.54096875,13.5816562 C5.605375,13.0314375 6.686875,12.4605937 7.7791875,11.8799687 C7.91734375,11.8065625 8.08265625,11.8065625 8.2208125,11.8799687 C9.31315625,12.4605937 10.3946563,13.0314062 11.4590313,13.5816562 C11.7973438,13.75675 12.2088437,13.4475625 12.1553438,13.06125 L12.1553438,13.06125 Z" id="Path" fill="url(#linearGradient-4)"></path>
            <path d="M3.79859375,8.03790625 C3.35784375,7.13765625 3.73490625,6.01684375 4.6248125,5.533125 C4.935375,5.36475 5.24575,5.19609375 5.5558125,5.027375 C4.3214375,5.21471875 3.08525,5.4064375 1.84790625,5.59825 C1.45375,5.65990625 1.2898125,6.133125 1.5728125,6.40215625 C2.4605,7.2479375 3.36028125,8.112125 4.26071875,8.9840625 C4.1061875,8.66809375 3.9520625,8.35265625 3.79859375,8.03790625 Z" id="Path" fill="url(#linearGradient-5)"></path>
            <path d="M6.7460625,12.0165625 C5.7630625,12.1438437 4.79759375,11.4276562 4.602625,10.4411562 C4.53525,10.09625 4.468375,9.75159375 4.402125,9.40715625 C4.202375,10.6288125 4.01478125,11.847125 3.844625,13.06125 C3.791125,13.4475312 4.20265625,13.75675 4.5409375,13.5816562 C5.60534375,13.0314375 6.6868125,12.4605937 7.77915625,11.88 C7.43453125,11.9265 7.09015625,11.9720312 6.7460625,12.0165625 Z" id="Path" fill="url(#linearGradient-6)"></path>
            <path d="M12.2014063,8.0379375 C12.0479375,8.35271875 11.8938125,8.668125 11.73925,8.98409375 C12.6396875,8.11215625 13.5394688,7.24796875 14.4271563,6.4021875 C14.7101563,6.133125 14.5462188,5.65990625 14.1520625,5.59828125 C12.9147188,5.40646875 11.6785313,5.21478125 10.4441563,5.02740625 C10.7542188,5.196125 11.0645938,5.36478125 11.3751563,5.53315625 C12.2650938,6.016875 12.6421563,7.1376875 12.2014063,8.0379375 Z" id="Path" fill="url(#linearGradient-7)"></path>
        </g>
    </g>
</svg>