<?xml version="1.0" encoding="UTF-8"?>
<svg width="18px" height="23px" viewBox="0 0 18 23" version="1.1" xmlns="http://www.w3.org/2000/svg" xmlns:xlink="http://www.w3.org/1999/xlink">
    <!-- Generator: Sketch 61.2 (89653) - https://sketch.com -->
    <title>Group 4</title>
    <desc>Created with Sketch.</desc>
    <g id="Symbols" stroke="none" stroke-width="1" fill="none" fill-rule="evenodd">
        <g id="Web/Top-Navigation" transform="translate(-742.000000, -63.000000)" fill-rule="nonzero">
            <g id="Group-14">
                <g id="Group" transform="translate(742.000000, 62.000000)">
                    <g id="Group-4" transform="translate(0.022676, 1.467917)">
                        <path d="M11.6384991,19.0367957 C11.6384991,17.5371854 10.4209184,16.3215533 8.91882794,16.3215533 C7.41673751,16.3215533 6.19915673,17.5371854 6.19915673,19.0367957 C6.19915673,20.5364059 7.41673751,21.752038 8.91882794,21.752038 C10.4209184,21.752038 11.6384991,20.5364059 11.6384991,19.0367957 L11.6384991,19.0367957 Z" id="Path" fill="#F7C92B"></path>
                        <path d="M8.91882794,16.3215533 C8.64388463,16.3215533 8.37850766,16.3626531 8.12836594,16.4384751 C9.24479166,16.7764853 10.0575751,17.8115973 10.0575751,19.0367957 C10.0575751,20.261817 9.24479166,21.2971061 8.12836594,21.6351163 C8.37850766,21.7109383 8.64388463,21.752038 8.91882794,21.752038 C10.4209184,21.752038 11.6384991,20.5364059 11.6384991,19.0367957 C11.6384991,17.5371854 10.4209184,16.3215533 8.91882794,16.3215533 L8.91882794,16.3215533 Z" id="Path" fill="#F2B51D"></path>
                        <path d="M9.23664259,3.18964435 C8.36309524,3.36484983 7.51293224,2.80008226 7.33737243,1.92795215 C7.16181265,1.05599922 7.72764313,0.207076319 8.60101333,0.0318707856 C9.47438349,-0.143334702 10.3247236,0.421432872 10.5002834,1.29356299 C10.6756661,2.16551596 10.1100127,3.01443886 9.23664259,3.18964435 Z" id="Path" fill="#F7C92B"></path>
                        <path d="M10.5002834,1.29356299 C10.3247236,0.421432872 9.47438349,-0.143334702 8.60101333,0.0318707856 C8.51969955,0.0481690169 8.44122023,0.0704904228 8.36557542,0.0977721915 C8.87542517,0.284138359 9.27915959,0.723126477 9.39395551,1.29356299 C9.55321714,2.08437931 9.10253687,2.85624013 8.36575256,3.12374299 C8.63538122,3.22224072 8.93459465,3.25023106 9.23664259,3.18964435 C10.1100127,3.01443886 10.6756661,2.16551596 10.5002834,1.29356299 Z" id="Path" fill="#F2B51D"></path>
                        <path d="M15.654939,18.5823952 L2.18271683,18.5823952 C0.97718254,18.5823952 8.8817842e-14,17.606807 8.8817842e-14,16.4033986 C8.8817842e-14,15.7371217 0.302047891,15.1066299 0.821463991,14.6883688 L1.2542517,14.3397294 C2.25535007,13.5336778 2.83747873,12.3185772 2.83747873,11.0345636 L2.83747873,8.74449128 C2.83747873,5.36562933 5.58088862,2.62664829 8.96524236,2.62664829 C12.349419,2.62664829 15.0930059,5.36562933 15.0930059,8.74449128 L15.0930059,11.0769034 C15.0930059,12.3366469 15.6533447,13.5315519 16.6225553,14.3383121 L17.0440051,14.6890775 C17.5469459,15.1076928 17.8376559,15.7277325 17.8376559,16.3814315 L17.8376559,16.4033986 C17.8376559,17.606807 16.8604734,18.5823952 15.654939,18.5823952 L15.654939,18.5823952 Z" id="Path" fill="#FDBF00"></path>
                        <path d="M17.0440051,14.6890775 L16.6225553,14.3383121 C15.6533447,13.5313748 15.0930059,12.3366469 15.0930059,11.0767263 L15.0930059,8.74431414 C15.0930059,5.36562933 12.349419,2.62647115 8.96524236,2.62647115 C8.36557542,2.62647115 7.78628118,2.7129224 7.23869755,2.87324693 C9.78227751,3.61747169 11.6399164,5.96423333 11.6399164,8.74431414 L11.6399164,11.0767263 C11.6399164,12.3366469 12.2002551,13.5313748 13.1694657,14.3383121 L13.5910927,14.6890775 C14.0938563,15.1076928 14.3847435,15.7277325 14.3847435,16.3814315 L14.3847435,16.4033986 C14.3847435,17.606807 13.407561,18.5823952 12.2020267,18.5823952 L15.6551162,18.5823952 C16.8604734,18.5823952 17.8376559,17.606807 17.8376559,16.4033986 L17.8376559,16.3814315 C17.8376559,15.7277325 17.5469459,15.1076928 17.0440051,14.6890775 L17.0440051,14.6890775 Z" id="Path" fill="#FF9F00"></path>
                    </g>
                </g>
            </g>
        </g>
    </g>
</svg>