<?xml version="1.0" encoding="UTF-8"?>
<svg width="24px" height="24px" viewBox="0 0 24 24" version="1.1" xmlns="http://www.w3.org/2000/svg" xmlns:xlink="http://www.w3.org/1999/xlink">
    <!-- Generator: Sketch 61.2 (89653) - https://sketch.com -->
    <title>icon/social medial/Google</title>
    <desc>Created with Sketch.</desc>
    <g id="Desktop-1440" stroke="none" stroke-width="1" fill="none" fill-rule="evenodd">
        <g id="2.0-Product-Details---Wireframe" transform="translate(-262.000000, -631.000000)">
            <g id="icon/social-medial/Google" transform="translate(262.000000, 631.000000)">
                <g id="Group">
                    <circle id="XMLID_30_" fill="#DC4E41" fill-rule="nonzero" cx="11.9146195" cy="11.9144071" r="11.9146195"></circle>
                    <g transform="translate(4.035398, 7.433628)" fill-rule="nonzero" id="Path">
                        <path d="M0.112778761,5.0140885 C0.0705132743,7.0640708 1.48247788,9.02038938 3.42477876,9.65840708 C5.25430088,10.2730619 7.50371681,9.81323894 8.72113274,8.24644248 C9.6099823,7.14860177 9.8119646,5.68502655 9.71575221,4.31766372 C8.14895575,4.30364602 6.58215929,4.30831858 5.01769912,4.31065487 C5.01515044,4.86881416 5.01769912,5.42484956 5.0200354,5.98300885 C5.95815929,6.00892035 6.89649558,5.99702655 7.83461947,6.0159292 C7.59780531,6.82746903 7.05833628,7.58272566 6.23957522,7.87582301 C4.65876106,8.57246018 2.64169912,7.66237168 2.14428319,6.0040354 C1.54385841,4.416 2.52679646,2.49961062 4.14966372,2.03766372 C5.1559646,1.68361062 6.19263717,2.08226549 7.05366372,2.60538053 C7.4899115,2.19716814 7.89812389,1.76092035 8.29911504,1.32 C7.32084956,0.501451327 6.06371681,-0.000424778761 4.77132743,0.10980531 C2.23561062,0.139964602 0.0165663717,2.48092035 0.112778761,5.0140885 Z" fill="#DC4E41"></path>
                        <path d="M12.7650265,2.90293805 C12.760354,3.36976991 12.755469,3.83893805 12.7531327,4.30555752 C12.2839646,4.31023009 11.8173451,4.31256637 11.3505133,4.31490265 C11.3505133,4.78173451 11.3505133,5.2460177 11.3505133,5.71284956 C11.8173451,5.71518584 12.2865133,5.71752212 12.7531327,5.72240708 C12.7578053,6.18923894 12.7578053,6.65585841 12.7624779,7.12502655 C13.2269735,7.12502655 13.6938053,7.12269027 14.1604248,7.12502655 C14.1629735,6.65585841 14.1650973,6.18923894 14.1699823,5.7200708 C14.6366018,5.71773451 15.1057699,5.71539823 15.5726018,5.71306195 C15.5726018,5.24623009 15.5726018,4.7819469 15.5726018,4.31511504 C15.1059823,4.31277876 14.6368142,4.31044248 14.1699823,4.30576991 C14.1674336,3.83893805 14.1629735,3.36976991 14.1604248,2.90315044 C13.6938053,2.90293805 13.2293097,2.90293805 12.7650265,2.90293805 Z" fill="#DC4E41"></path>
                        <g fill="#FFFFFF">
                            <path d="M0.112778761,5.0140885 C0.0165663717,2.48092035 2.23539823,0.139964602 4.77111504,0.10959292 C6.06350442,-0.000637168142 7.32084956,0.501238938 8.29890265,1.31978761 C7.89769912,1.76092035 7.48948673,2.19695575 7.05345133,2.60516814 C6.19242478,2.0820531 5.15575221,1.68339823 4.14945133,2.03745133 C2.52637168,2.49961062 1.54343363,4.416 2.1440708,6.00382301 C2.64148673,7.66215929 4.65854867,8.57224779 6.23936283,7.87561062 C7.0579115,7.58251327 7.59759292,6.82725664 7.83440708,6.01571681 C6.89628319,5.99702655 5.9579469,6.00870796 5.01982301,5.98279646 C5.01748673,5.42463717 5.01515044,4.86860177 5.01748673,4.31044248 C6.5819469,4.30810619 8.14874336,4.30343363 9.71553982,4.31745133 C9.81175221,5.68502655 9.6099823,7.14860177 8.72092035,8.24623009 C7.50350442,9.81302655 5.25430088,10.2728496 3.42456637,9.65819469 C1.48269027,9.02038938 0.0705132743,7.0640708 0.112778761,5.0140885 Z"></path>
                            <path d="M12.7650265,2.90293805 C13.2295221,2.90293805 13.6938053,2.90293805 14.1604248,2.90293805 C14.1629735,3.36976991 14.1674336,3.83893805 14.1699823,4.30555752 C14.6366018,4.31023009 15.1057699,4.31256637 15.5726018,4.31490265 C15.5726018,4.78173451 15.5726018,5.2460177 15.5726018,5.71284956 C15.1059823,5.71518584 14.6368142,5.71752212 14.1699823,5.71985841 C14.1653097,6.18902655 14.1629735,6.65564602 14.1604248,7.12481416 C13.6938053,7.12247788 13.2267611,7.12481416 12.7624779,7.12481416 C12.7580177,6.65564602 12.7580177,6.18902655 12.7531327,5.72219469 C12.2865133,5.71730973 11.8173451,5.71518584 11.3505133,5.71263717 C11.3505133,5.24580531 11.3505133,4.78152212 11.3505133,4.31469027 C11.8173451,4.31235398 12.284177,4.3100177 12.7531327,4.30534513 C12.755469,3.83893805 12.7601416,3.36976991 12.7650265,2.90293805 Z"></path>
                        </g>
                    </g>
                </g>
            </g>
        </g>
    </g>
</svg>